<!--
  floor4.svg
  GJ_StampTour

  Created by Js Na on 2023/09/13.
  Copyright © 2023 Js Na, All rights reserved.
-->
<svg id="mapF4" class="map">
    <g id="복도">
        <rect class="hallway" x="150" y="100" width="50" height="300" />
        <rect class="hallway" x="150" y="400" width="1100" height="50" />
        <rect class="hallway" x="850" y="0" width="50" height="400" />
        <rect class="hallway" x="1200" y="450" width="50" height="550" />
        <polygon class="hallway" points="90,360 130,400 150,400 150,500 130,500 90,540 0,450" />
        <rect class="hallway" x="150" y="450" width="150" height="100" />

        <!--계단-->
        <rect class="hallway" x="1100" y="450" width="50" height="100" />
        <rect class="hallway" x="1100" y="450" width="50" height="100" />
        <rect class="hallway" x="800" y="0" width="50" height="100" />
    </g>
    <g id="교실">
        <g id="기술실" class="classroom">
            <rect x="100" y="0" width="150" height="100" />
            <text x="175" y="50">기술실</text>
        </g>
        <rect x="250" y="0" width="50" height="100" />
        <g id="가사실" class="classroom">
            <rect x="200" y="100" width="100" height="150" />
            <text x="250" y="175">가사실</text>
        </g>
        <g id="뉴턴실(수)" class="classroom">
            <rect x="100" y="100" width="50" height="100" />
            <text x="125" y="150" dy="-0.3em" style="font-size: 1em;">뉴턴실</text>
            <text x="125" y="150" dy="0.8em" style="font-size: 0.8em; font-weight: normal;">(수)</text>
        </g>
        <g id="가우스실(수)" class="classroom">
            <rect x="200" y="250" width="100" height="50" />
            <text x="250" y="275" dy="-0.3em" style="font-size: 1em;">가우스실</text>
            <text x="250" y="275" dy="0.8em" style="font-size: 0.8em; font-weight: normal;">(수)</text>
        </g>
        <g id="교실203" class="classroom">
            <rect x="300" y="450" width="150" height="100" />
            <text x="375" y="500">교실 2-3</text>
        </g>
        <g id="교실204" class="classroom">
            <rect x="450" y="450" width="150" height="100" />
            <text x="525" y="500">교실 2-4</text>
        </g>
        <g id="교실205" class="classroom">
            <rect x="600" y="450" width="150" height="100" />
            <text x="675" y="500">교실 2-5</text>
        </g>
        <g id="교실206" class="classroom">
            <rect x="750" y="450" width="150" height="100" />
            <text x="825" y="500">교실 2-6</text>
        </g>
        <g id="교실207" class="classroom">
            <rect x="900" y="450" width="150" height="100" />
            <text x="975" y="500">교실 2-7</text>
        </g>
        <g id="교실208" class="classroom">
            <rect x="1250" y="400" width="100" height="150" />
            <text x="1300" y="475">교실 2-8</text>
        </g>
        <g id="교실209" class="classroom">
            <rect x="1250" y="550" width="100" height="150" />
            <text x="1300" y="625">교실 2-9</text>
        </g>
        <g id="교실210" class="classroom">
            <rect x="1250" y="700" width="100" height="150" />
            <text x="1300" y="775">교실 2-10</text>
        </g>
        <g id="교실211" class="classroom">
            <rect x="1250" y="850" width="100" height="150" />
            <text x="1300" y="925">교실 2-11</text>
        </g>

        <g id="화장실1" class="notClassroom">
            <rect x="200" y="300" width="100" height="100" />
            <text x="250" y="350">화장실</text>
        </g>
        <g id="화장실2" class="notClassroom">
            <rect x="750" y="300" width="100" height="100" />
            <text x="800" y="350">화장실</text>
        </g>

        <g id="교무실" class="notClassroom">
            <rect x="900" y="300" width="100" height="100" />
            <text x="950" y="350">교무실</text>
        </g>
        <rect class="notClassroom" x="1050" y="450" width="50" height="100" />
        <rect class="notClassroom" x="900" y="0" width="100" height="300" />
    </g>
</svg>